<mxfile host="app.diagrams.net" modified="2024-07-11T08:33:58.623Z" agent="Mozilla/5.0 (X11; Linux x86_64) AppleWebKit/537.36 (KHTML, like Gecko) Chrome/126.0.0.0 Safari/537.36" etag="p8-u4Z5KB6hxO_jcHcY3" version="24.6.4" type="github">
  <diagram name="Page-1" id="Vvxi3eaOHNYTfqwF8qMl">
    <mxGraphModel dx="1196" dy="621" grid="1" gridSize="10" guides="1" tooltips="1" connect="1" arrows="1" fold="1" page="1" pageScale="1" pageWidth="827" pageHeight="1169" math="0" shadow="0">
      <root>
        <mxCell id="0" />
        <mxCell id="1" parent="0" />
        <mxCell id="QqvgjilXs0riYiPpLU37-2" value="&lt;i&gt;DSI&lt;/i&gt; - Direction" style="rounded=1;whiteSpace=wrap;html=1;fillColor=#dae8fc;strokeColor=#6c8ebf;" vertex="1" parent="1">
          <mxGeometry x="75" y="40" width="120" height="40" as="geometry" />
        </mxCell>
      </root>
    </mxGraphModel>
  </diagram>
</mxfile>
